<svg xmlns="http://www.w3.org/2000/svg" xmlns:xlink="http://www.w3.org/1999/xlink" width="32.668" height="32.668" viewBox="0 0 32.668 32.668">
  <defs>
    <clipPath id="clip-path">
      <path id="Path_178" data-name="Path 178" d="M0,0H32.668V32.668H0Z" fill="#fff"/>
    </clipPath>
  </defs>
  <g id="baseline-replay_5-24px" transform="translate(0)" clip-path="url(#clip-path)">
    <path id="Path_177" data-name="Path 177" d="M14.889,6.445V1L8.084,7.806l6.806,6.806V9.167a8.167,8.167,0,1,1-8.167,8.167H4A10.889,10.889,0,1,0,14.889,6.445ZM13.12,18.559l.272-2.995h3.267v.953H14.345l-.136,1.225a.133.133,0,0,0,.136-.136c0-.136.136,0,.136-.136s.136,0,.272,0h.272a1.02,1.02,0,0,1,.681.136c.136.136.408.272.544.408a2.975,2.975,0,0,1,.408.681,1.726,1.726,0,0,1,.136.817,1.02,1.02,0,0,1-.136.681c-.136.136-.136.408-.408.681s-.408.272-.544.408-.544.136-.817.136a1.02,1.02,0,0,1-.681-.136c-.136-.136-.408-.136-.681-.272s-.272-.272-.408-.544a1.227,1.227,0,0,1-.136-.681h1.089a.707.707,0,0,0,.272.544c.136.136.272.136.544.136a.5.5,0,0,0,.408-.136l.272-.272a1.371,1.371,0,0,0,.136-.408v-.817l-.136-.272-.272-.272a1.371,1.371,0,0,0-.408-.136h-.272a.422.422,0,0,0-.272.136c-.136.136-.136,0-.136.136a.133.133,0,0,1-.136.136H13.12Z" transform="translate(1.445 0.361)" fill="#fff"/>
  </g>
</svg>
