<svg id="baseline-settings_voice-24px" xmlns="http://www.w3.org/2000/svg" width="29.245" height="29.244" viewBox="0 0 29.245 29.244">
  <path id="Path_10" data-name="Path 10" d="M7.437,29.026H9.874V26.589H7.437Zm6.093-13.4a3.64,3.64,0,0,0,3.643-3.656l.012-7.311a3.656,3.656,0,0,0-7.311,0v7.311A3.651,3.651,0,0,0,13.53,15.622Zm-1.219,13.4h2.437V26.589H12.311Zm4.874,0h2.437V26.589H17.185Zm4.874-17.059H19.988a6.323,6.323,0,0,1-6.458,6.214,6.323,6.323,0,0,1-6.458-6.214H5a8.51,8.51,0,0,0,7.311,8.188v4h2.437v-4A8.51,8.51,0,0,0,22.059,11.967Z" transform="translate(1.093 0.219)" fill="#c46477"/>
  <path id="Path_11" data-name="Path 11" d="M0,0H29.244V29.244H0Z" fill="rgba(0,0,0,0)"/>
</svg>
