<svg xmlns="http://www.w3.org/2000/svg" viewBox="0 0 9.737 19.276">
  <defs>
    <style>
      .cls-1 {
        fill: #385c8e;
      }
    </style>
  </defs>
  <path id="facebook" class="cls-1" d="M126.993,10.266h2.113v8.7a.311.311,0,0,0,.311.311H133a.311.311,0,0,0,.311-.311V10.307h2.429a.311.311,0,0,0,.309-.275l.369-3.2a.311.311,0,0,0-.309-.346h-2.8V4.476c0-.605.326-.912.969-.912h1.829a.311.311,0,0,0,.311-.311V.313A.311.311,0,0,0,136.108,0h-2.521c-.018,0-.057,0-.115,0a4.831,4.831,0,0,0-3.159,1.191,3.313,3.313,0,0,0-1.1,2.945V6.483h-2.218a.311.311,0,0,0-.311.311V9.955A.311.311,0,0,0,126.993,10.266Z" transform="translate(-126.682)"/>
</svg>
