<svg xmlns="http://www.w3.org/2000/svg" xmlns:xlink="http://www.w3.org/1999/xlink" width="32.668" height="32.668" viewBox="0 0 32.668 32.668">
  <defs>
    <clipPath id="clip-path">
      <path id="Path_176" data-name="Path 176" d="M32.668,32.668H0V0H32.668Z" fill="#fff"/>
    </clipPath>
  </defs>
  <g id="baseline-forward_5-24px" clip-path="url(#clip-path)">
    <path id="Path_175" data-name="Path 175" d="M4,17.334a10.889,10.889,0,0,0,21.779,0H23.056a8.167,8.167,0,1,1-8.167-8.167v5.445L21.7,7.806,14.889,1V6.445A10.921,10.921,0,0,0,4,17.334Zm9.12,1.225.272-2.995h3.267v.953H14.345l-.136,1.225a.133.133,0,0,0,.136-.136c0-.136.136,0,.136-.136s.136,0,.272,0h.272a1.02,1.02,0,0,1,.681.136c.136.136.408.272.544.408a2.975,2.975,0,0,1,.408.681,1.726,1.726,0,0,1,.136.817,1.02,1.02,0,0,1-.136.681c-.136.136-.136.408-.408.681a1.813,1.813,0,0,1-.681.408,1.726,1.726,0,0,1-.817.136,1.02,1.02,0,0,1-.681-.136c-.136-.136-.408-.136-.681-.272s-.272-.272-.408-.544a1.227,1.227,0,0,1-.136-.681h1.089a.707.707,0,0,0,.272.544c.136.136.272.136.544.136a.5.5,0,0,0,.408-.136l.272-.272a1.371,1.371,0,0,0,.136-.408v-.817l-.136-.272-.272-.272a1.371,1.371,0,0,0-.408-.136h-.272a.422.422,0,0,0-.272.136c-.136.136-.136,0-.136.136a.133.133,0,0,1-.136.136H13.12Z" transform="translate(1.445 0.361)" fill="#fff"/>
  </g>
</svg>
