<svg xmlns="http://www.w3.org/2000/svg" viewBox="0 0 27 17.276">
  <defs>
    <style>
      .cls-1 {
        fill: #f34a38;
      }
    </style>
  </defs>
  <g id="google-plus" transform="translate(0 -82.519)">
    <path id="Path_76" data-name="Path 76" class="cls-1" d="M9.473,92.939h4.218a5.363,5.363,0,1,1-1.456-5.75.581.581,0,0,0,.79,0l1.549-1.458a.579.579,0,0,0,0-.842A8.606,8.606,0,0,0,8.81,82.521a8.638,8.638,0,1,0,8.452,9.122c.007-.057.011-1.983.011-1.983h-7.8a.579.579,0,0,0-.579.579v2.121A.579.579,0,0,0,9.473,92.939Z" transform="translate(0 0)"/>
    <path id="Path_77" data-name="Path 77" class="cls-1" d="M329.2,165.788v-2.072a.507.507,0,0,0-.507-.507h-1.744a.507.507,0,0,0-.507.507v2.072h-2.072a.507.507,0,0,0-.507.507v1.744a.507.507,0,0,0,.507.507h2.072v2.072a.507.507,0,0,0,.507.507h1.744a.507.507,0,0,0,.507-.507v-2.072h2.072a.507.507,0,0,0,.507-.507v-1.744a.507.507,0,0,0-.507-.507Z" transform="translate(-304.778 -75.934)"/>
  </g>
</svg>
