<svg xmlns="http://www.w3.org/2000/svg" viewBox="0 0 82 83">
  <defs>
    <style>
      .cls-1 {
        fill: none;
      }

      .cls-2, .cls-3 {
        stroke: none;
      }

      .cls-3 {
        fill: #e5e6e8;
      }
    </style>
  </defs>
  <g id="Path_48" data-name="Path 48" class="cls-1">
    <path class="cls-2" d="M41,0C63.644,0,82,18.58,82,41.5S63.644,83,41,83,0,64.42,0,41.5,18.356,0,41,0Z"/>
    <path class="cls-3" d="M 41 9 C 23.35514068603516 9 9 23.57944107055664 9 41.5 C 9 59.42056274414063 23.35514068603516 74 41 74 C 58.64485931396484 74 73 59.42056274414063 73 41.5 C 73 23.57944107055664 58.64485931396484 9 41 9 M 41 0 C 63.64368057250977 0 82 18.58017730712891 82 41.5 C 82 64.41982269287109 63.64368057250977 83 41 83 C 18.35631942749023 83 0 64.41982269287109 0 41.5 C 0 18.58017730712891 18.35631942749023 0 41 0 Z"/>
  </g>
</svg>
