<svg id="baseline-settings_voice-24px" xmlns="http://www.w3.org/2000/svg" viewBox="0 0 94.315 94.315">
  <defs>
    <style>
      .cls-1 {
        fill: #c46477;
      }

      .cls-2 {
        fill: none;
      }
    </style>
  </defs>
  <path id="Path_10" data-name="Path 10" class="cls-1" d="M12.86,91.386h7.86v-7.86H12.86ZM32.509,48.158a11.74,11.74,0,0,0,11.75-11.789L44.3,12.789a11.789,11.789,0,0,0-23.579,0V36.368A11.774,11.774,0,0,0,32.509,48.158Zm-3.93,43.228h7.86v-7.86h-7.86Zm15.719,0h7.86v-7.86H44.3ZM60.017,36.368H53.337c0,11.789-9.982,20.042-20.828,20.042S11.681,48.158,11.681,36.368H5c0,13.4,10.689,24.483,23.579,26.408v12.89h7.86V62.777C49.328,60.851,60.017,49.769,60.017,36.368Z" transform="translate(14.649 2.93)"/>
  <path id="Path_11" data-name="Path 11" class="cls-2" d="M0,0H94.315V94.315H0Z"/>
</svg>
