<svg xmlns="http://www.w3.org/2000/svg" viewBox="0 0 21.791 18.126">
  <defs>
    <style>
      .cls-1 {
        fill: #76a9ea;
      }
    </style>
  </defs>
  <path id="twitter" class="cls-1" d="M21.445,36.6a8.629,8.629,0,0,1-1.5.507,4.685,4.685,0,0,0,1.237-1.969h0a.246.246,0,0,0-.359-.286h0a8.67,8.67,0,0,1-2.3.949.585.585,0,0,1-.144.018.609.609,0,0,1-.4-.154,4.7,4.7,0,0,0-3.108-1.173,5.023,5.023,0,0,0-1.488.23A4.552,4.552,0,0,0,10.313,38a5.012,5.012,0,0,0-.111,1.73.168.168,0,0,1-.042.132.174.174,0,0,1-.13.059h-.017A12.319,12.319,0,0,1,1.546,35.4h0a.246.246,0,0,0-.4.032h0a4.7,4.7,0,0,0,.764,5.711,4.21,4.21,0,0,1-1.072-.415h0a.246.246,0,0,0-.365.212h0a4.7,4.7,0,0,0,2.744,4.334h-.1a4.227,4.227,0,0,1-.792-.076h0a.246.246,0,0,0-.28.316h0a4.709,4.709,0,0,0,3.719,3.2A8.669,8.669,0,0,1,.907,50.188H.363a.36.36,0,0,0-.352.271.372.372,0,0,0,.178.411,12.9,12.9,0,0,0,6.479,1.747,13.071,13.071,0,0,0,5.537-1.175,12.227,12.227,0,0,0,4.051-3.036,13.31,13.31,0,0,0,2.481-4.155,13.125,13.125,0,0,0,.843-4.547v-.072a.8.8,0,0,1,.3-.622,9.286,9.286,0,0,0,1.868-2.05h0a.246.246,0,0,0-.3-.361Z" transform="translate(0 -34.491)"/>
</svg>
